<svg width="236" height="170" viewBox="0 0 236 170" fill="none" xmlns="http://www.w3.org/2000/svg">
<g filter="url(#filter0_b_3_2077)">
<g filter="url(#filter1_i_3_2077)">
<path d="M156.342 58.8769C156.594 57.4448 156.726 55.9717 156.726 54.4682C156.726 40.4025 145.217 29 131.02 29C120.466 29 111.397 35.3018 107.438 44.3147C104.231 41.5713 100.07 39.9149 95.5217 39.9149C85.3811 39.9149 77.1606 48.1501 77.1606 58.3086C77.1606 58.8743 77.1861 59.434 77.2359 59.9867C72.3585 62.3536 69 67.3202 69 73.064C69 81.1015 75.5765 87.6172 83.689 87.6172H153.053C161.166 87.6172 167.742 81.1015 167.742 73.064C167.742 66.1466 162.871 60.3563 156.342 58.8769Z" fill="url(#paint0_linear_3_2077)"/>
</g>
</g>
<g filter="url(#filter2_i_3_2077)">
<path d="M127.105 87.6478H111.374L104.535 106.04H116.846L111.146 129L131.893 98.8775H122.774L127.105 87.6478Z" fill="url(#paint1_linear_3_2077)"/>
</g>
<g filter="url(#filter3_f_3_2077)">
<rect x="77.8051" y="77.1132" width="80.8176" height="15.7233" rx="7.86164" fill="#FFED8D"/>
</g>
<g filter="url(#filter4_di_3_2077)">
<path d="M137.915 121.005C135.473 122.089 134.52 123.006 133.646 125.274C132.951 123.076 132.095 122.095 129.377 121.005C132.173 120.094 132.932 119.04 133.646 116.736C134.524 118.859 135.067 120.018 137.915 121.005Z" fill="url(#paint2_linear_3_2077)"/>
</g>
<g filter="url(#filter5_i_3_2077)">
<path d="M98.2926 97.1054C95.8505 98.1899 94.8973 99.1064 94.0236 101.374C93.3279 99.1764 92.4723 98.1961 89.7547 97.1054C92.5503 96.1946 93.309 95.1402 94.0236 92.8365C94.9018 94.9597 95.4441 96.1185 98.2926 97.1054Z" fill="url(#paint3_linear_3_2077)"/>
</g>
<defs>
<filter id="filter0_b_3_2077" x="42" y="2" width="152.742" height="112.617" filterUnits="userSpaceOnUse" color-interpolation-filters="sRGB">
<feFlood flood-opacity="0" result="BackgroundImageFix"/>
<feGaussianBlur in="BackgroundImageFix" stdDeviation="13.5"/>
<feComposite in2="SourceAlpha" operator="in" result="effect1_backgroundBlur_3_2077"/>
<feBlend mode="normal" in="SourceGraphic" in2="effect1_backgroundBlur_3_2077" result="shape"/>
</filter>
<filter id="filter1_i_3_2077" x="69" y="29" width="98.7422" height="68.6172" filterUnits="userSpaceOnUse" color-interpolation-filters="sRGB">
<feFlood flood-opacity="0" result="BackgroundImageFix"/>
<feBlend mode="normal" in="SourceGraphic" in2="BackgroundImageFix" result="shape"/>
<feColorMatrix in="SourceAlpha" type="matrix" values="0 0 0 0 0 0 0 0 0 0 0 0 0 0 0 0 0 0 127 0" result="hardAlpha"/>
<feOffset dy="11"/>
<feGaussianBlur stdDeviation="5"/>
<feComposite in2="hardAlpha" operator="arithmetic" k2="-1" k3="1"/>
<feColorMatrix type="matrix" values="0 0 0 0 1 0 0 0 0 1 0 0 0 0 1 0 0 0 1 0"/>
<feBlend mode="normal" in2="shape" result="effect1_innerShadow_3_2077"/>
</filter>
<filter id="filter2_i_3_2077" x="102.535" y="87.6478" width="29.3585" height="41.3522" filterUnits="userSpaceOnUse" color-interpolation-filters="sRGB">
<feFlood flood-opacity="0" result="BackgroundImageFix"/>
<feBlend mode="normal" in="SourceGraphic" in2="BackgroundImageFix" result="shape"/>
<feColorMatrix in="SourceAlpha" type="matrix" values="0 0 0 0 0 0 0 0 0 0 0 0 0 0 0 0 0 0 127 0" result="hardAlpha"/>
<feOffset dx="-2"/>
<feGaussianBlur stdDeviation="4.5"/>
<feComposite in2="hardAlpha" operator="arithmetic" k2="-1" k3="1"/>
<feColorMatrix type="matrix" values="0 0 0 0 1 0 0 0 0 1 0 0 0 0 1 0 0 0 0.5 0"/>
<feBlend mode="normal" in2="shape" result="effect1_innerShadow_3_2077"/>
</filter>
<filter id="filter3_f_3_2077" x="0.805054" y="0.113205" width="234.818" height="169.723" filterUnits="userSpaceOnUse" color-interpolation-filters="sRGB">
<feFlood flood-opacity="0" result="BackgroundImageFix"/>
<feBlend mode="normal" in="SourceGraphic" in2="BackgroundImageFix" result="shape"/>
<feGaussianBlur stdDeviation="38.5" result="effect1_foregroundBlur_3_2077"/>
</filter>
<filter id="filter4_di_3_2077" x="120.61" y="116.736" width="26.0729" height="28.3054" filterUnits="userSpaceOnUse" color-interpolation-filters="sRGB">
<feFlood flood-opacity="0" result="BackgroundImageFix"/>
<feColorMatrix in="SourceAlpha" type="matrix" values="0 0 0 0 0 0 0 0 0 0 0 0 0 0 0 0 0 0 127 0" result="hardAlpha"/>
<feOffset dy="11"/>
<feGaussianBlur stdDeviation="4.38372"/>
<feColorMatrix type="matrix" values="0 0 0 0 0.285052 0 0 0 0 0.179688 0 0 0 0 0.9375 0 0 0 1 0"/>
<feBlend mode="normal" in2="BackgroundImageFix" result="effect1_dropShadow_3_2077"/>
<feBlend mode="normal" in="SourceGraphic" in2="effect1_dropShadow_3_2077" result="shape"/>
<feColorMatrix in="SourceAlpha" type="matrix" values="0 0 0 0 0 0 0 0 0 0 0 0 0 0 0 0 0 0 127 0" result="hardAlpha"/>
<feOffset dy="4"/>
<feGaussianBlur stdDeviation="2"/>
<feComposite in2="hardAlpha" operator="arithmetic" k2="-1" k3="1"/>
<feColorMatrix type="matrix" values="0 0 0 0 1 0 0 0 0 1 0 0 0 0 1 0 0 0 0.44 0"/>
<feBlend mode="normal" in2="shape" result="effect2_innerShadow_3_2077"/>
</filter>
<filter id="filter5_i_3_2077" x="89.7546" y="92.8365" width="8.53796" height="12.5379" filterUnits="userSpaceOnUse" color-interpolation-filters="sRGB">
<feFlood flood-opacity="0" result="BackgroundImageFix"/>
<feBlend mode="normal" in="SourceGraphic" in2="BackgroundImageFix" result="shape"/>
<feColorMatrix in="SourceAlpha" type="matrix" values="0 0 0 0 0 0 0 0 0 0 0 0 0 0 0 0 0 0 127 0" result="hardAlpha"/>
<feOffset dy="4"/>
<feGaussianBlur stdDeviation="2"/>
<feComposite in2="hardAlpha" operator="arithmetic" k2="-1" k3="1"/>
<feColorMatrix type="matrix" values="0 0 0 0 1 0 0 0 0 1 0 0 0 0 1 0 0 0 0.44 0"/>
<feBlend mode="normal" in2="shape" result="effect1_innerShadow_3_2077"/>
</filter>
<linearGradient id="paint0_linear_3_2077" x1="75.2805" y1="82.3836" x2="174.895" y2="7.8908" gradientUnits="userSpaceOnUse">
<stop stop-color="white"/>
<stop offset="1" stop-color="white" stop-opacity="0.58"/>
</linearGradient>
<linearGradient id="paint1_linear_3_2077" x1="114.832" y1="125.017" x2="141.521" y2="88.1756" gradientUnits="userSpaceOnUse">
<stop stop-color="#FF9900"/>
<stop offset="1" stop-color="#FFEE94"/>
</linearGradient>
<linearGradient id="paint2_linear_3_2077" x1="132.411" y1="125.674" x2="136.429" y2="118.13" gradientUnits="userSpaceOnUse">
<stop stop-color="#FF9900"/>
<stop offset="1" stop-color="#FFEE94"/>
</linearGradient>
<linearGradient id="paint3_linear_3_2077" x1="92.7887" y1="101.774" x2="96.8066" y2="94.2305" gradientUnits="userSpaceOnUse">
<stop stop-color="#FF9900"/>
<stop offset="1" stop-color="#FFEE94"/>
</linearGradient>
</defs>
</svg>
