<svg width="245" height="239" viewBox="0 0 245 239" fill="none" xmlns="http://www.w3.org/2000/svg">
<g filter="url(#filter0_f_3_1739)">
<rect x="77.5918" y="77" width="89.8876" height="84.6442" rx="42.3221" fill="#FFEF9A"/>
</g>
<g filter="url(#filter1_i_3_1739)">
<path d="M161.487 126.064C161.487 147.576 144.048 165.015 122.536 165.015C101.023 165.015 83.5842 147.576 83.5842 126.064C83.5842 104.551 101.023 87.1123 122.536 87.1123C144.048 87.1123 161.487 104.551 161.487 126.064Z" fill="url(#paint0_linear_3_1739)"/>
</g>
<g filter="url(#filter2_b_3_1739)">
<g filter="url(#filter3_i_3_1739)">
<path d="M144.755 146.149C145.026 144.612 145.167 143.031 145.167 141.417C145.167 126.318 132.813 114.079 117.574 114.079C106.245 114.079 96.5103 120.843 92.2607 130.518C88.8181 127.573 84.3509 125.795 79.4691 125.795C68.5839 125.795 59.7597 134.635 59.7597 145.539C59.7597 146.147 59.7871 146.747 59.8406 147.341C54.6051 149.881 51 155.213 51 161.378C51 170.006 58.0593 177 66.7675 177H141.225C149.933 177 156.993 170.006 156.993 161.378C156.993 153.953 151.764 147.737 144.755 146.149Z" fill="url(#paint1_linear_3_1739)"/>
</g>
</g>
<defs>
<filter id="filter0_f_3_1739" x="0.591797" y="0" width="243.888" height="238.644" filterUnits="userSpaceOnUse" color-interpolation-filters="sRGB">
<feFlood flood-opacity="0" result="BackgroundImageFix"/>
<feBlend mode="normal" in="SourceGraphic" in2="BackgroundImageFix" result="shape"/>
<feGaussianBlur stdDeviation="38.5" result="effect1_foregroundBlur_3_1739"/>
</filter>
<filter id="filter1_i_3_1739" x="83.5842" y="87.1123" width="77.9026" height="82.9026" filterUnits="userSpaceOnUse" color-interpolation-filters="sRGB">
<feFlood flood-opacity="0" result="BackgroundImageFix"/>
<feBlend mode="normal" in="SourceGraphic" in2="BackgroundImageFix" result="shape"/>
<feColorMatrix in="SourceAlpha" type="matrix" values="0 0 0 0 0 0 0 0 0 0 0 0 0 0 0 0 0 0 127 0" result="hardAlpha"/>
<feOffset dy="5"/>
<feGaussianBlur stdDeviation="9"/>
<feComposite in2="hardAlpha" operator="arithmetic" k2="-1" k3="1"/>
<feColorMatrix type="matrix" values="0 0 0 0 1 0 0 0 0 1 0 0 0 0 1 0 0 0 0.81 0"/>
<feBlend mode="normal" in2="shape" result="effect1_innerShadow_3_1739"/>
</filter>
<filter id="filter2_b_3_1739" x="24" y="87.0787" width="159.993" height="116.921" filterUnits="userSpaceOnUse" color-interpolation-filters="sRGB">
<feFlood flood-opacity="0" result="BackgroundImageFix"/>
<feGaussianBlur in="BackgroundImageFix" stdDeviation="13.5"/>
<feComposite in2="SourceAlpha" operator="in" result="effect1_backgroundBlur_3_1739"/>
<feBlend mode="normal" in="SourceGraphic" in2="effect1_backgroundBlur_3_1739" result="shape"/>
</filter>
<filter id="filter3_i_3_1739" x="51" y="114.079" width="105.993" height="72.9214" filterUnits="userSpaceOnUse" color-interpolation-filters="sRGB">
<feFlood flood-opacity="0" result="BackgroundImageFix"/>
<feBlend mode="normal" in="SourceGraphic" in2="BackgroundImageFix" result="shape"/>
<feColorMatrix in="SourceAlpha" type="matrix" values="0 0 0 0 0 0 0 0 0 0 0 0 0 0 0 0 0 0 127 0" result="hardAlpha"/>
<feOffset dy="11"/>
<feGaussianBlur stdDeviation="5"/>
<feComposite in2="hardAlpha" operator="arithmetic" k2="-1" k3="1"/>
<feColorMatrix type="matrix" values="0 0 0 0 1 0 0 0 0 1 0 0 0 0 1 0 0 0 1 0"/>
<feBlend mode="normal" in2="shape" result="effect1_innerShadow_3_1739"/>
</filter>
<linearGradient id="paint0_linear_3_1739" x1="116.619" y1="147.265" x2="148.667" y2="91.0567" gradientUnits="userSpaceOnUse">
<stop stop-color="#FF9900"/>
<stop offset="1" stop-color="#FFEE94"/>
</linearGradient>
<linearGradient id="paint1_linear_3_1739" x1="57.7416" y1="171.382" x2="164.67" y2="91.4195" gradientUnits="userSpaceOnUse">
<stop stop-color="white"/>
<stop offset="1" stop-color="white" stop-opacity="0.58"/>
</linearGradient>
</defs>
</svg>
